<?xml version="1.0" encoding="UTF-8"?>
<svg id="Layer_2" xmlns="http://www.w3.org/2000/svg" viewBox="0 0 514.24 276.47">
  <defs>
    <style>
      .cls-1 {
        fill: #6fc3c5;
      }

      .cls-2 {
        fill: #333;
      }
    </style>
  </defs>
  <g id="Layer_1-2" data-name="Layer_1">
    <g>
      <path class="cls-2" d="M440.61,253.08c-5.1,0-34.9-.5-45.1-.4-77.1,5.4-30.6-4.3-42.1-16.5-45.7-48.4-46.2-119.6,26-149.7,1.5,4.2,2.4,8.9,3.9,13.1-49.1,21.4-69.2,66.5-37.8,110.6,33.2,46.8,109.9,51.2,143.4,5,47.8-66-16.3-141.2-93.3-120.2-1.6-4.4-3.1-8.7-4.6-13.1,68.3-19.3,133.4,24.5,121.9,102.8-3.4,22.8-19.5,31-28.5,57.5-4,11.7,43.1,11.2-43.7,10.8h0l-.1.1Z"/>
      <path class="cls-2" d="M29.21,246.48c-3.2-3.3-7.4-7.4-10-11.1-6.2-8.9-10.4-17.5-14.1-27.4C-24.39,115.98,80.11,39.98,157.81,98.68c-2.8,3.4-5.7,7.1-8.5,10.5-43.1-31.7-105.6-16.9-128,32.4-23.7,52.2,13.2,114.7,70,120.3,81.1,8.1,124.1-89.1,67.4-145,3-3.6,5.3-7.5,8.4-11,51,49.3,37.2,134.2-28.1,163.1-35.9,15.9-82.8,5.6-109.7-22.5h-.1Z"/>
      <path class="cls-2" d="M190.91,19.68c-2.9.6-9.3,2.2-11.5,2.3-7.2.4-18.7-1-22.3-8.1-3.1-6.1-1.5-12.1,5.8-13.5,5.4-1,48.5,1.5,52.3,3.9,11.6,7.3-19.9,14.5-24.2,15.4h-.1Z"/>
      <path class="cls-1" d="M418.61,163.08c-8.1-22.5-15-45.6-23.1-68.1-1.6-4.4-3.1-8.7-4.6-13.1-8.1-23.2-18.2-46.6-24.2-70,6-.2,26,2.6,27.3-4.2.4-2.1-1.3-6.6-3.5-7.3-1.7-.5-33.5-.5-35.4,0-.6.2-3.1,2-3.5,2.7-2.8,5.1,12.6,35.3,12.7,42.7l-163.8.8-9.6-26.9c-2.9.6-9.3,2.2-11.5,2.3l12.3,34.2c-10.4,13-21.2,25.8-31.5,38.8-2.7,3.5-5.8,6.6-8.5,10-10.4,13.1-35.3,50.1-46.5,58.5-.2.2-4.2.2-6.1,1.5-18.4,12.3,6.1,37.2,18.5,17.7,24.5,1.2,49,3.4,73.5,5.4,4.3.3,8.7.4,13.1.8,4.8.4,21.8.2,25,1.5.6.3,5.6,8.5,8.5,10,15.2,8.2,32-7.8,25-23.5l109.6-107.3c1.2,0,6.5,14.8,7.3,16.9,1.5,4.2,2.4,8.9,3.9,13.1,7.9,21.9,15.8,43.9,23.8,65.8-4,6.6-6.4,18.1,1.9,22.7,18.3,10.1,31.4-19.4,9.6-25h-.2ZM229.01,178.08c-1.1.4-20.1-1.4-23.5-1.5-4.8-.3-9.9-1.2-14.6-1.5-24.6-1.5-49.3-2.7-73.8-5,13.3-19.7,29.6-37.9,44.6-56.5,2.9-3.5,5.6-7.2,8.5-10.8,8.6-10.7,17.1-21.7,25.4-32.7l1.5.8,35.4,99.2c.9,1.5-2.5,7.7-3.5,8.1h0v-.1ZM252.81,168.08l-9.6-2.7-37.3-107.3,160.4.4-113.4,109.6h-.1Z"/>
    </g>
  </g>
</svg>