<?xml version="1.0" encoding="UTF-8"?>
<svg id="Layer_2" xmlns="http://www.w3.org/2000/svg" viewBox="0 0 514.18 280.28">
  <defs>
    <style>
      .cls-1 {
        fill: #ff6c6c;
      }

      .cls-2 {
        fill: #333;
      }
    </style>
  </defs>
  <g id="Layer_1-2" data-name="Layer_1">
    <g>
      <circle class="cls-2" cx="414.98" cy="180.97" r="99.2"/>
      <path class="cls-2" d="M31.28,252.17c-3.2-3.2-7.7-7.2-10.3-10.8-6.4-8.7-11.8-16.3-14.9-26.9C-26.12,123.38,76.18,44.27,155.48,100.77c-2.7,3.5-25.1,34.1-27.9,37.6-35.5-14-56.4,4.8-64.5,20.7-8,15.5,0,62.5,41.6,60.4,26-1.4,64.1-31.6,23-81,2.9-3.6,34.9-26.6,37.9-30.2,52.4,47.8,40.5,132.6-23.9,163.4-35.4,16.9-82.6,8.1-110.3-19.3h0l-.1-.2Z"/>
      <path class="cls-2" d="M189.48,19.57c-2.9.6-9.3,2.2-11.5,2.3-7.2.4-18.7-1-22.3-8.1-3.1-6.1-1.5-12.1,5.8-13.5,5.4-1,48.5,1.5,52.3,3.8,11.6,7.3-19.9,14.5-24.2,15.4h0l-.1.1Z"/>
      <path class="cls-1" d="M417.18,163.07c-8.1-22.5-15-45.6-23.1-68.1-1.6-4.4-3.1-8.7-4.6-13.1-8.1-23.2-18.2-46.6-24.2-70,6-.2,26.1,2.6,27.3-4.2.4-2.1-1.3-6.6-3.5-7.3-1.7-.5-33.5-.5-35.4,0-.6.2-3.1,2-3.5,2.7-2.8,5.1,12.6,35.3,12.7,42.7l-163.8.8-9.6-26.9c-2.9.6-9.3,2.2-11.5,2.3l12.3,34.2c-10.4,13-21.2,25.8-31.5,38.8-2.7,3.5-5.8,6.6-8.5,10-10.4,13.1-35.3,50.1-46.5,58.5-.2.2-4.2.2-6.2,1.5-18.4,12.3,6.2,37.2,18.5,17.7,24.5,1.2,49,3.4,73.5,5.4,4.3.3,8.7.4,13.1.8,4.8.4,21.8.2,25,1.5.6.3,5.6,8.5,8.5,10,15.2,8.2,32-7.8,25-23.5l109.6-107.3c1.2,0,6.5,14.8,7.3,16.9,1.5,4.2,2.3,8.9,3.8,13.1,7.9,21.9,15.8,43.9,23.8,65.8-4,6.6-6.3,18.1,1.9,22.7,18.3,10.1,31.4-19.4,9.6-25h0ZM227.58,178.07c-1.1.4-20.1-1.4-23.5-1.5-4.8-.3-9.9-1.2-14.6-1.5-24.6-1.5-49.3-2.7-73.8-5,13.3-19.7,29.6-37.9,44.6-56.5,2.8-3.5,5.6-7.2,8.5-10.8,8.6-10.7,17.1-21.7,25.4-32.7l1.5.8,35.4,99.2c.8,1.5-2.5,7.7-3.5,8.1h0v-.1ZM251.39,168.07l-9.6-2.7-37.3-107.3,160.4.4-113.4,109.6h-.1Z"/>
    </g>
  </g>
</svg>